G04 #@! TF.FileFunction,Copper,L1,Top,Signal*
%FSLAX46Y46*%
G04 Gerber Fmt 4.6, Leading zero omitted, Abs format (unit mm)*
G04 Created by KiCad (PCBNEW (2015-02-20 BZR 5435)-product) date Sun 22 Feb 2015 03:58:16 PM EST*
%MOMM*%
G01*
G04 APERTURE LIST*
%ADD10C,0.100000*%
%ADD11C,0.300000*%
%ADD12C,2.000000*%
%ADD13C,2.200000*%
%ADD14R,0.650000X0.600000*%
%ADD15R,0.600000X0.650000*%
%ADD16R,0.650000X0.700000*%
%ADD17C,0.600000*%
%ADD18C,0.341000*%
%ADD19C,0.150000*%
G04 APERTURE END LIST*
D10*
D11*
X132678571Y-79571428D02*
X132678571Y-80428571D01*
X132678571Y-79999999D02*
X131178571Y-79999999D01*
X131392857Y-80142856D01*
X131535714Y-80285714D01*
X131607143Y-80428571D01*
D12*
X104000000Y-76000000D03*
D13*
X101450000Y-73450000D03*
X106550000Y-73450000D03*
X101450000Y-78550000D03*
X106550000Y-78550000D03*
D12*
X127000000Y-76000000D03*
D13*
X124450000Y-73450000D03*
X129550000Y-73450000D03*
X124450000Y-78550000D03*
X129550000Y-78550000D03*
D14*
X115950000Y-75500000D03*
X115050000Y-75500000D03*
X112950000Y-75500000D03*
X112050000Y-75500000D03*
X115950000Y-74500000D03*
X115050000Y-74500000D03*
X118950000Y-75500000D03*
X118050000Y-75500000D03*
D15*
X110500000Y-75450000D03*
X110500000Y-74550000D03*
X110500000Y-76550000D03*
X110500000Y-77450000D03*
X114000000Y-76800000D03*
X114000000Y-77700000D03*
X117000000Y-76800000D03*
X117000000Y-77700000D03*
X120500000Y-75450000D03*
X120500000Y-74550000D03*
X120500000Y-76550000D03*
X120500000Y-77450000D03*
D16*
X112950000Y-76500000D03*
X112050000Y-76500000D03*
X115950000Y-76500000D03*
X115050000Y-76500000D03*
X118950000Y-76500000D03*
X118050000Y-76500000D03*
D17*
X99000000Y-81000000D03*
X102000000Y-81000000D03*
X105000000Y-81000000D03*
X108000000Y-81000000D03*
X111000000Y-81000000D03*
X114000000Y-81000000D03*
X117000000Y-81000000D03*
X120000000Y-81000000D03*
X123000000Y-81000000D03*
X126000000Y-81000000D03*
X129000000Y-81000000D03*
X132000000Y-71000000D03*
X129000000Y-71000000D03*
X126000000Y-71000000D03*
X123000000Y-71000000D03*
X120000000Y-71000000D03*
X117000000Y-71000000D03*
X114000000Y-71000000D03*
X111000000Y-71000000D03*
X108000000Y-71000000D03*
X105000000Y-71000000D03*
X105000000Y-71000000D03*
X102000000Y-71000000D03*
X99000000Y-71000000D03*
X99000000Y-76000000D03*
X111000000Y-73000000D03*
X114000000Y-73000000D03*
X117000000Y-73000000D03*
X120000000Y-73000000D03*
X111000000Y-79000000D03*
X114000000Y-79000000D03*
X117000000Y-79000000D03*
X120000000Y-79000000D03*
X108000000Y-75000000D03*
X108000000Y-77000000D03*
X123000000Y-75000000D03*
X123000000Y-77000000D03*
X132000000Y-73750000D03*
X130250000Y-81000000D03*
D18*
X116250000Y-76800000D02*
X115950000Y-76500000D01*
X117000000Y-76800000D02*
X116250000Y-76800000D01*
X115950000Y-76500000D02*
X115950000Y-75500000D01*
X115950000Y-75500000D02*
X115950000Y-74500000D01*
X117750000Y-76800000D02*
X118050000Y-76500000D01*
X117000000Y-76800000D02*
X117750000Y-76800000D01*
X118050000Y-76500000D02*
X118050000Y-75500000D01*
X112950000Y-75500000D02*
X112950000Y-76500000D01*
X113250000Y-76800000D02*
X112950000Y-76500000D01*
X114000000Y-76800000D02*
X113250000Y-76800000D01*
X114750000Y-76800000D02*
X115050000Y-76500000D01*
X114000000Y-76800000D02*
X114750000Y-76800000D01*
X115050000Y-76500000D02*
X115050000Y-75500000D01*
X115050000Y-75500000D02*
X115050000Y-74500000D01*
X112011064Y-76000000D02*
X112050000Y-75961064D01*
X112050000Y-75961064D02*
X112050000Y-76500000D01*
X112050000Y-75500000D02*
X112050000Y-75961064D01*
X110500000Y-75983435D02*
X110483435Y-76000000D01*
X110500000Y-75450000D02*
X110500000Y-75983435D01*
X110483435Y-76000000D02*
X112011064Y-76000000D01*
X104000000Y-76000000D02*
X110483435Y-76000000D01*
X110500000Y-76016565D02*
X110483435Y-76000000D01*
X110500000Y-76550000D02*
X110500000Y-76016565D01*
X120504868Y-76000000D02*
X120500000Y-76004868D01*
X127000000Y-76000000D02*
X120504868Y-76000000D01*
X120500000Y-76004868D02*
X120500000Y-76550000D01*
X120500000Y-75450000D02*
X120500000Y-76004868D01*
X118971414Y-76000000D02*
X118950000Y-75978586D01*
X127000000Y-76000000D02*
X118971414Y-76000000D01*
X118950000Y-75978586D02*
X118950000Y-76500000D01*
X118950000Y-75500000D02*
X118950000Y-75978586D01*
X101450000Y-78550000D02*
X99000000Y-81000000D01*
X99000000Y-81000000D02*
X102000000Y-81000000D01*
X102000000Y-81000000D02*
X105000000Y-81000000D01*
X105000000Y-81000000D02*
X108000000Y-81000000D01*
X108000000Y-81000000D02*
X111000000Y-81000000D01*
X111000000Y-81000000D02*
X114000000Y-81000000D01*
X114000000Y-81000000D02*
X117000000Y-81000000D01*
X117000000Y-81000000D02*
X120000000Y-81000000D01*
X120000000Y-81000000D02*
X123000000Y-81000000D01*
X123000000Y-81000000D02*
X126000000Y-81000000D01*
X126000000Y-81000000D02*
X129000000Y-81000000D01*
X129000000Y-71000000D02*
X126000000Y-71000000D01*
X123000000Y-71000000D02*
X120000000Y-71000000D01*
X117000000Y-71000000D02*
X114000000Y-71000000D01*
X111000000Y-71000000D02*
X108000000Y-71000000D01*
X105000000Y-71000000D02*
X102000000Y-71000000D01*
X99000000Y-71000000D02*
X99000000Y-76000000D01*
X110550000Y-73450000D02*
X111000000Y-73000000D01*
X106550000Y-73450000D02*
X110550000Y-73450000D01*
X114000000Y-73000000D02*
X117000000Y-73000000D01*
X110550000Y-78550000D02*
X111000000Y-79000000D01*
X106550000Y-78550000D02*
X110550000Y-78550000D01*
X114000000Y-79000000D02*
X117000000Y-79000000D01*
X108000000Y-71000000D02*
X108000000Y-75000000D01*
X123000000Y-71000000D02*
X123000000Y-75000000D01*
X131889115Y-73450000D02*
X132000000Y-73339115D01*
X129550000Y-73450000D02*
X131889115Y-73450000D01*
X132000000Y-73339115D02*
X132000000Y-71000000D01*
X132000000Y-73750000D02*
X132000000Y-73339115D01*
X130250000Y-81000000D02*
X129000000Y-81000000D01*
D19*
G36*
X132925000Y-81925000D02*
X126151243Y-81925000D01*
X126151243Y-78774346D01*
X126107597Y-78106231D01*
X125935890Y-77691694D01*
X125679649Y-77573495D01*
X125426505Y-77826639D01*
X125426505Y-77320351D01*
X125308306Y-77064110D01*
X124674346Y-76848757D01*
X124006231Y-76892403D01*
X123591694Y-77064110D01*
X123473495Y-77320351D01*
X124450000Y-78296856D01*
X125426505Y-77320351D01*
X125426505Y-77826639D01*
X124703144Y-78550000D01*
X125679649Y-79526505D01*
X125935890Y-79408306D01*
X126151243Y-78774346D01*
X126151243Y-81925000D01*
X125426505Y-81925000D01*
X125426505Y-79779649D01*
X124450000Y-78803144D01*
X124196856Y-79056288D01*
X124196856Y-78550000D01*
X123220351Y-77573495D01*
X122964110Y-77691694D01*
X122748757Y-78325654D01*
X122792403Y-78993769D01*
X122964110Y-79408306D01*
X123220351Y-79526505D01*
X124196856Y-78550000D01*
X124196856Y-79056288D01*
X123473495Y-79779649D01*
X123591694Y-80035890D01*
X124225654Y-80251243D01*
X124893769Y-80207597D01*
X125308306Y-80035890D01*
X125426505Y-79779649D01*
X125426505Y-81925000D01*
X121383000Y-81925000D01*
X121383000Y-77890966D01*
X121383000Y-77758250D01*
X121237250Y-77612500D01*
X120650000Y-77612500D01*
X120650000Y-78212250D01*
X120795750Y-78358000D01*
X120915966Y-78358000D01*
X121130243Y-78269244D01*
X121294244Y-78105243D01*
X121383000Y-77890966D01*
X121383000Y-81925000D01*
X120350000Y-81925000D01*
X120350000Y-78212250D01*
X120350000Y-77612500D01*
X119762750Y-77612500D01*
X119617000Y-77758250D01*
X119617000Y-77890966D01*
X119705756Y-78105243D01*
X119869757Y-78269244D01*
X120084034Y-78358000D01*
X120204250Y-78358000D01*
X120350000Y-78212250D01*
X120350000Y-81925000D01*
X117883000Y-81925000D01*
X117883000Y-78140966D01*
X117883000Y-78008250D01*
X117737250Y-77862500D01*
X117150000Y-77862500D01*
X117150000Y-78462250D01*
X117295750Y-78608000D01*
X117415966Y-78608000D01*
X117630243Y-78519244D01*
X117794244Y-78355243D01*
X117883000Y-78140966D01*
X117883000Y-81925000D01*
X116850000Y-81925000D01*
X116850000Y-78462250D01*
X116850000Y-77862500D01*
X116262750Y-77862500D01*
X116117000Y-78008250D01*
X116117000Y-78140966D01*
X116205756Y-78355243D01*
X116369757Y-78519244D01*
X116584034Y-78608000D01*
X116704250Y-78608000D01*
X116850000Y-78462250D01*
X116850000Y-81925000D01*
X114883000Y-81925000D01*
X114883000Y-78140966D01*
X114883000Y-78008250D01*
X114737250Y-77862500D01*
X114150000Y-77862500D01*
X114150000Y-78462250D01*
X114295750Y-78608000D01*
X114415966Y-78608000D01*
X114630243Y-78519244D01*
X114794244Y-78355243D01*
X114883000Y-78140966D01*
X114883000Y-81925000D01*
X113850000Y-81925000D01*
X113850000Y-78462250D01*
X113850000Y-77862500D01*
X113262750Y-77862500D01*
X113117000Y-78008250D01*
X113117000Y-78140966D01*
X113205756Y-78355243D01*
X113369757Y-78519244D01*
X113584034Y-78608000D01*
X113704250Y-78608000D01*
X113850000Y-78462250D01*
X113850000Y-81925000D01*
X111383000Y-81925000D01*
X111383000Y-77890966D01*
X111383000Y-77758250D01*
X111237250Y-77612500D01*
X110650000Y-77612500D01*
X110650000Y-78212250D01*
X110795750Y-78358000D01*
X110915966Y-78358000D01*
X111130243Y-78269244D01*
X111294244Y-78105243D01*
X111383000Y-77890966D01*
X111383000Y-81925000D01*
X110350000Y-81925000D01*
X110350000Y-78212250D01*
X110350000Y-77612500D01*
X109762750Y-77612500D01*
X109617000Y-77758250D01*
X109617000Y-77890966D01*
X109705756Y-78105243D01*
X109869757Y-78269244D01*
X110084034Y-78358000D01*
X110204250Y-78358000D01*
X110350000Y-78212250D01*
X110350000Y-81925000D01*
X108251243Y-81925000D01*
X108251243Y-78774346D01*
X108207597Y-78106231D01*
X108035890Y-77691694D01*
X107779649Y-77573495D01*
X107526505Y-77826639D01*
X107526505Y-77320351D01*
X107408306Y-77064110D01*
X106774346Y-76848757D01*
X106106231Y-76892403D01*
X105691694Y-77064110D01*
X105573495Y-77320351D01*
X106550000Y-78296856D01*
X107526505Y-77320351D01*
X107526505Y-77826639D01*
X106803144Y-78550000D01*
X107779649Y-79526505D01*
X108035890Y-79408306D01*
X108251243Y-78774346D01*
X108251243Y-81925000D01*
X107526505Y-81925000D01*
X107526505Y-79779649D01*
X106550000Y-78803144D01*
X106296856Y-79056288D01*
X106296856Y-78550000D01*
X105320351Y-77573495D01*
X105064110Y-77691694D01*
X104848757Y-78325654D01*
X104892403Y-78993769D01*
X105064110Y-79408306D01*
X105320351Y-79526505D01*
X106296856Y-78550000D01*
X106296856Y-79056288D01*
X105573495Y-79779649D01*
X105691694Y-80035890D01*
X106325654Y-80251243D01*
X106993769Y-80207597D01*
X107408306Y-80035890D01*
X107526505Y-79779649D01*
X107526505Y-81925000D01*
X103151243Y-81925000D01*
X103151243Y-78774346D01*
X103107597Y-78106231D01*
X102935890Y-77691694D01*
X102679649Y-77573495D01*
X102426505Y-77826639D01*
X102426505Y-77320351D01*
X102426505Y-74679649D01*
X101450000Y-73703144D01*
X101196856Y-73956288D01*
X101196856Y-73450000D01*
X100220351Y-72473495D01*
X99964110Y-72591694D01*
X99748757Y-73225654D01*
X99792403Y-73893769D01*
X99964110Y-74308306D01*
X100220351Y-74426505D01*
X101196856Y-73450000D01*
X101196856Y-73956288D01*
X100473495Y-74679649D01*
X100591694Y-74935890D01*
X101225654Y-75151243D01*
X101893769Y-75107597D01*
X102308306Y-74935890D01*
X102426505Y-74679649D01*
X102426505Y-77320351D01*
X102308306Y-77064110D01*
X101674346Y-76848757D01*
X101006231Y-76892403D01*
X100591694Y-77064110D01*
X100473495Y-77320351D01*
X101450000Y-78296856D01*
X102426505Y-77320351D01*
X102426505Y-77826639D01*
X101703144Y-78550000D01*
X102679649Y-79526505D01*
X102935890Y-79408306D01*
X103151243Y-78774346D01*
X103151243Y-81925000D01*
X102426505Y-81925000D01*
X102426505Y-79779649D01*
X101450000Y-78803144D01*
X101196856Y-79056288D01*
X101196856Y-78550000D01*
X100220351Y-77573495D01*
X99964110Y-77691694D01*
X99748757Y-78325654D01*
X99792403Y-78993769D01*
X99964110Y-79408306D01*
X100220351Y-79526505D01*
X101196856Y-78550000D01*
X101196856Y-79056288D01*
X100473495Y-79779649D01*
X100591694Y-80035890D01*
X101225654Y-80251243D01*
X101893769Y-80207597D01*
X102308306Y-80035890D01*
X102426505Y-79779649D01*
X102426505Y-81925000D01*
X98075000Y-81925000D01*
X98075000Y-70500000D01*
X98075000Y-70075000D01*
X132925000Y-70075000D01*
X132925000Y-74425000D01*
X130782911Y-74425000D01*
X131035890Y-74308306D01*
X131251243Y-73674346D01*
X131207597Y-73006231D01*
X131035890Y-72591694D01*
X130779649Y-72473495D01*
X130526505Y-72726639D01*
X130526505Y-72220351D01*
X130408306Y-71964110D01*
X129774346Y-71748757D01*
X129106231Y-71792403D01*
X128691694Y-71964110D01*
X128573495Y-72220351D01*
X129550000Y-73196856D01*
X130526505Y-72220351D01*
X130526505Y-72726639D01*
X129803144Y-73450000D01*
X129817286Y-73464142D01*
X129564142Y-73717286D01*
X129550000Y-73703144D01*
X129296856Y-73956288D01*
X129296856Y-73450000D01*
X128320351Y-72473495D01*
X128064110Y-72591694D01*
X127848757Y-73225654D01*
X127892403Y-73893769D01*
X128064110Y-74308306D01*
X128320351Y-74426505D01*
X129296856Y-73450000D01*
X129296856Y-73956288D01*
X128573495Y-74679649D01*
X128691694Y-74935890D01*
X129325654Y-75151243D01*
X129993769Y-75107597D01*
X130408306Y-74935890D01*
X130526504Y-74679651D01*
X130526505Y-74679652D01*
X130635763Y-74788910D01*
X130675000Y-74749673D01*
X130675000Y-77250327D01*
X130635763Y-77211090D01*
X130526505Y-77320348D01*
X130526504Y-77320348D01*
X130408306Y-77064110D01*
X129774346Y-76848757D01*
X129106231Y-76892403D01*
X128691694Y-77064110D01*
X128573495Y-77320351D01*
X129550000Y-78296856D01*
X129564142Y-78282713D01*
X129817286Y-78535857D01*
X129803144Y-78550000D01*
X129817286Y-78564142D01*
X129564142Y-78817286D01*
X129550000Y-78803144D01*
X129296856Y-79056288D01*
X129296856Y-78550000D01*
X128320351Y-77573495D01*
X128275221Y-77594312D01*
X128275221Y-75747499D01*
X128081523Y-75278714D01*
X127723173Y-74919738D01*
X127254726Y-74725222D01*
X126747499Y-74724779D01*
X126278714Y-74918477D01*
X126151243Y-75045725D01*
X126151243Y-73674346D01*
X126107597Y-73006231D01*
X125935890Y-72591694D01*
X125679649Y-72473495D01*
X125426505Y-72726639D01*
X125426505Y-72220351D01*
X125308306Y-71964110D01*
X124674346Y-71748757D01*
X124006231Y-71792403D01*
X123591694Y-71964110D01*
X123473495Y-72220351D01*
X124450000Y-73196856D01*
X125426505Y-72220351D01*
X125426505Y-72726639D01*
X124703144Y-73450000D01*
X125679649Y-74426505D01*
X125935890Y-74308306D01*
X126151243Y-73674346D01*
X126151243Y-75045725D01*
X125919738Y-75276827D01*
X125804438Y-75554500D01*
X125426505Y-75554500D01*
X125426505Y-74679649D01*
X124450000Y-73703144D01*
X124196856Y-73956288D01*
X124196856Y-73450000D01*
X123220351Y-72473495D01*
X122964110Y-72591694D01*
X122748757Y-73225654D01*
X122792403Y-73893769D01*
X122964110Y-74308306D01*
X123220351Y-74426505D01*
X124196856Y-73450000D01*
X124196856Y-73956288D01*
X123473495Y-74679649D01*
X123591694Y-74935890D01*
X124225654Y-75151243D01*
X124893769Y-75107597D01*
X125308306Y-74935890D01*
X125426505Y-74679649D01*
X125426505Y-75554500D01*
X121080388Y-75554500D01*
X121080388Y-75389894D01*
X121130243Y-75369244D01*
X121294244Y-75205243D01*
X121383000Y-74990966D01*
X121383000Y-74858250D01*
X121383000Y-74241750D01*
X121383000Y-74109034D01*
X121294244Y-73894757D01*
X121130243Y-73730756D01*
X120915966Y-73642000D01*
X120795750Y-73642000D01*
X120650000Y-73787750D01*
X120650000Y-74387500D01*
X121237250Y-74387500D01*
X121383000Y-74241750D01*
X121383000Y-74858250D01*
X121237250Y-74712500D01*
X120650000Y-74712500D01*
X120650000Y-74749000D01*
X120350000Y-74749000D01*
X120350000Y-74712500D01*
X120350000Y-74387500D01*
X120350000Y-73787750D01*
X120204250Y-73642000D01*
X120084034Y-73642000D01*
X119869757Y-73730756D01*
X119705756Y-73894757D01*
X119617000Y-74109034D01*
X119617000Y-74241750D01*
X119762750Y-74387500D01*
X120350000Y-74387500D01*
X120350000Y-74712500D01*
X119762750Y-74712500D01*
X119617000Y-74858250D01*
X119617000Y-74864333D01*
X119287500Y-74425000D01*
X117531066Y-74425000D01*
X116531066Y-73425000D01*
X114468934Y-73425000D01*
X113468934Y-74425000D01*
X111709861Y-74425000D01*
X111383000Y-74915291D01*
X111383000Y-74858250D01*
X111383000Y-74241750D01*
X111383000Y-74109034D01*
X111294244Y-73894757D01*
X111130243Y-73730756D01*
X110915966Y-73642000D01*
X110795750Y-73642000D01*
X110650000Y-73787750D01*
X110650000Y-74387500D01*
X111237250Y-74387500D01*
X111383000Y-74241750D01*
X111383000Y-74858250D01*
X111237250Y-74712500D01*
X110650000Y-74712500D01*
X110650000Y-74749000D01*
X110350000Y-74749000D01*
X110350000Y-74712500D01*
X110350000Y-74387500D01*
X110350000Y-73787750D01*
X110204250Y-73642000D01*
X110084034Y-73642000D01*
X109869757Y-73730756D01*
X109705756Y-73894757D01*
X109617000Y-74109034D01*
X109617000Y-74241750D01*
X109762750Y-74387500D01*
X110350000Y-74387500D01*
X110350000Y-74712500D01*
X109762750Y-74712500D01*
X109617000Y-74858250D01*
X109617000Y-74990966D01*
X109705756Y-75205243D01*
X109869757Y-75369244D01*
X109919612Y-75389894D01*
X109919612Y-75554500D01*
X108251243Y-75554500D01*
X108251243Y-73674346D01*
X108207597Y-73006231D01*
X108035890Y-72591694D01*
X107779649Y-72473495D01*
X107526505Y-72726639D01*
X107526505Y-72220351D01*
X107408306Y-71964110D01*
X106774346Y-71748757D01*
X106106231Y-71792403D01*
X105691694Y-71964110D01*
X105573495Y-72220351D01*
X106550000Y-73196856D01*
X107526505Y-72220351D01*
X107526505Y-72726639D01*
X106803144Y-73450000D01*
X107779649Y-74426505D01*
X108035890Y-74308306D01*
X108251243Y-73674346D01*
X108251243Y-75554500D01*
X107526505Y-75554500D01*
X107526505Y-74679649D01*
X106550000Y-73703144D01*
X106296856Y-73956288D01*
X106296856Y-73450000D01*
X105320351Y-72473495D01*
X105064110Y-72591694D01*
X104848757Y-73225654D01*
X104892403Y-73893769D01*
X105064110Y-74308306D01*
X105320351Y-74426505D01*
X106296856Y-73450000D01*
X106296856Y-73956288D01*
X105573495Y-74679649D01*
X105691694Y-74935890D01*
X106325654Y-75151243D01*
X106993769Y-75107597D01*
X107408306Y-74935890D01*
X107526505Y-74679649D01*
X107526505Y-75554500D01*
X105195475Y-75554500D01*
X105081523Y-75278714D01*
X104723173Y-74919738D01*
X104254726Y-74725222D01*
X103747499Y-74724779D01*
X103278714Y-74918477D01*
X103151243Y-75045725D01*
X103151243Y-73674346D01*
X103107597Y-73006231D01*
X102935890Y-72591694D01*
X102679649Y-72473495D01*
X102426505Y-72726639D01*
X102426505Y-72220351D01*
X102308306Y-71964110D01*
X101674346Y-71748757D01*
X101006231Y-71792403D01*
X100591694Y-71964110D01*
X100473495Y-72220351D01*
X101450000Y-73196856D01*
X102426505Y-72220351D01*
X102426505Y-72726639D01*
X101703144Y-73450000D01*
X102679649Y-74426505D01*
X102935890Y-74308306D01*
X103151243Y-73674346D01*
X103151243Y-75045725D01*
X102919738Y-75276827D01*
X102725222Y-75745274D01*
X102724779Y-76252501D01*
X102918477Y-76721286D01*
X103276827Y-77080262D01*
X103745274Y-77274778D01*
X104252501Y-77275221D01*
X104721286Y-77081523D01*
X105080262Y-76723173D01*
X105195561Y-76445500D01*
X109919612Y-76445500D01*
X109919612Y-76610105D01*
X109869757Y-76630756D01*
X109705756Y-76794757D01*
X109617000Y-77009034D01*
X109617000Y-77141750D01*
X109762750Y-77287500D01*
X110350000Y-77287500D01*
X110350000Y-77251000D01*
X110650000Y-77251000D01*
X110650000Y-77287500D01*
X111157295Y-77287500D01*
X111732295Y-77575000D01*
X119272708Y-77575000D01*
X119739233Y-77263983D01*
X119762750Y-77287500D01*
X120350000Y-77287500D01*
X120350000Y-77251000D01*
X120650000Y-77251000D01*
X120650000Y-77287500D01*
X121237250Y-77287500D01*
X121383000Y-77141750D01*
X121383000Y-77009034D01*
X121294244Y-76794757D01*
X121130243Y-76630756D01*
X121080388Y-76610105D01*
X121080388Y-76445500D01*
X125804524Y-76445500D01*
X125918477Y-76721286D01*
X126276827Y-77080262D01*
X126745274Y-77274778D01*
X127252501Y-77275221D01*
X127721286Y-77081523D01*
X128080262Y-76723173D01*
X128274778Y-76254726D01*
X128275221Y-75747499D01*
X128275221Y-77594312D01*
X128064110Y-77691694D01*
X127848757Y-78325654D01*
X127892403Y-78993769D01*
X128064110Y-79408306D01*
X128320351Y-79526505D01*
X129296856Y-78550000D01*
X129296856Y-79056288D01*
X128573495Y-79779649D01*
X128691694Y-80035890D01*
X129325654Y-80251243D01*
X129993769Y-80207597D01*
X130225000Y-80111817D01*
X130225000Y-81139285D01*
X132925000Y-81139285D01*
X132925000Y-81925000D01*
X132925000Y-81925000D01*
G37*
X132925000Y-81925000D02*
X126151243Y-81925000D01*
X126151243Y-78774346D01*
X126107597Y-78106231D01*
X125935890Y-77691694D01*
X125679649Y-77573495D01*
X125426505Y-77826639D01*
X125426505Y-77320351D01*
X125308306Y-77064110D01*
X124674346Y-76848757D01*
X124006231Y-76892403D01*
X123591694Y-77064110D01*
X123473495Y-77320351D01*
X124450000Y-78296856D01*
X125426505Y-77320351D01*
X125426505Y-77826639D01*
X124703144Y-78550000D01*
X125679649Y-79526505D01*
X125935890Y-79408306D01*
X126151243Y-78774346D01*
X126151243Y-81925000D01*
X125426505Y-81925000D01*
X125426505Y-79779649D01*
X124450000Y-78803144D01*
X124196856Y-79056288D01*
X124196856Y-78550000D01*
X123220351Y-77573495D01*
X122964110Y-77691694D01*
X122748757Y-78325654D01*
X122792403Y-78993769D01*
X122964110Y-79408306D01*
X123220351Y-79526505D01*
X124196856Y-78550000D01*
X124196856Y-79056288D01*
X123473495Y-79779649D01*
X123591694Y-80035890D01*
X124225654Y-80251243D01*
X124893769Y-80207597D01*
X125308306Y-80035890D01*
X125426505Y-79779649D01*
X125426505Y-81925000D01*
X121383000Y-81925000D01*
X121383000Y-77890966D01*
X121383000Y-77758250D01*
X121237250Y-77612500D01*
X120650000Y-77612500D01*
X120650000Y-78212250D01*
X120795750Y-78358000D01*
X120915966Y-78358000D01*
X121130243Y-78269244D01*
X121294244Y-78105243D01*
X121383000Y-77890966D01*
X121383000Y-81925000D01*
X120350000Y-81925000D01*
X120350000Y-78212250D01*
X120350000Y-77612500D01*
X119762750Y-77612500D01*
X119617000Y-77758250D01*
X119617000Y-77890966D01*
X119705756Y-78105243D01*
X119869757Y-78269244D01*
X120084034Y-78358000D01*
X120204250Y-78358000D01*
X120350000Y-78212250D01*
X120350000Y-81925000D01*
X117883000Y-81925000D01*
X117883000Y-78140966D01*
X117883000Y-78008250D01*
X117737250Y-77862500D01*
X117150000Y-77862500D01*
X117150000Y-78462250D01*
X117295750Y-78608000D01*
X117415966Y-78608000D01*
X117630243Y-78519244D01*
X117794244Y-78355243D01*
X117883000Y-78140966D01*
X117883000Y-81925000D01*
X116850000Y-81925000D01*
X116850000Y-78462250D01*
X116850000Y-77862500D01*
X116262750Y-77862500D01*
X116117000Y-78008250D01*
X116117000Y-78140966D01*
X116205756Y-78355243D01*
X116369757Y-78519244D01*
X116584034Y-78608000D01*
X116704250Y-78608000D01*
X116850000Y-78462250D01*
X116850000Y-81925000D01*
X114883000Y-81925000D01*
X114883000Y-78140966D01*
X114883000Y-78008250D01*
X114737250Y-77862500D01*
X114150000Y-77862500D01*
X114150000Y-78462250D01*
X114295750Y-78608000D01*
X114415966Y-78608000D01*
X114630243Y-78519244D01*
X114794244Y-78355243D01*
X114883000Y-78140966D01*
X114883000Y-81925000D01*
X113850000Y-81925000D01*
X113850000Y-78462250D01*
X113850000Y-77862500D01*
X113262750Y-77862500D01*
X113117000Y-78008250D01*
X113117000Y-78140966D01*
X113205756Y-78355243D01*
X113369757Y-78519244D01*
X113584034Y-78608000D01*
X113704250Y-78608000D01*
X113850000Y-78462250D01*
X113850000Y-81925000D01*
X111383000Y-81925000D01*
X111383000Y-77890966D01*
X111383000Y-77758250D01*
X111237250Y-77612500D01*
X110650000Y-77612500D01*
X110650000Y-78212250D01*
X110795750Y-78358000D01*
X110915966Y-78358000D01*
X111130243Y-78269244D01*
X111294244Y-78105243D01*
X111383000Y-77890966D01*
X111383000Y-81925000D01*
X110350000Y-81925000D01*
X110350000Y-78212250D01*
X110350000Y-77612500D01*
X109762750Y-77612500D01*
X109617000Y-77758250D01*
X109617000Y-77890966D01*
X109705756Y-78105243D01*
X109869757Y-78269244D01*
X110084034Y-78358000D01*
X110204250Y-78358000D01*
X110350000Y-78212250D01*
X110350000Y-81925000D01*
X108251243Y-81925000D01*
X108251243Y-78774346D01*
X108207597Y-78106231D01*
X108035890Y-77691694D01*
X107779649Y-77573495D01*
X107526505Y-77826639D01*
X107526505Y-77320351D01*
X107408306Y-77064110D01*
X106774346Y-76848757D01*
X106106231Y-76892403D01*
X105691694Y-77064110D01*
X105573495Y-77320351D01*
X106550000Y-78296856D01*
X107526505Y-77320351D01*
X107526505Y-77826639D01*
X106803144Y-78550000D01*
X107779649Y-79526505D01*
X108035890Y-79408306D01*
X108251243Y-78774346D01*
X108251243Y-81925000D01*
X107526505Y-81925000D01*
X107526505Y-79779649D01*
X106550000Y-78803144D01*
X106296856Y-79056288D01*
X106296856Y-78550000D01*
X105320351Y-77573495D01*
X105064110Y-77691694D01*
X104848757Y-78325654D01*
X104892403Y-78993769D01*
X105064110Y-79408306D01*
X105320351Y-79526505D01*
X106296856Y-78550000D01*
X106296856Y-79056288D01*
X105573495Y-79779649D01*
X105691694Y-80035890D01*
X106325654Y-80251243D01*
X106993769Y-80207597D01*
X107408306Y-80035890D01*
X107526505Y-79779649D01*
X107526505Y-81925000D01*
X103151243Y-81925000D01*
X103151243Y-78774346D01*
X103107597Y-78106231D01*
X102935890Y-77691694D01*
X102679649Y-77573495D01*
X102426505Y-77826639D01*
X102426505Y-77320351D01*
X102426505Y-74679649D01*
X101450000Y-73703144D01*
X101196856Y-73956288D01*
X101196856Y-73450000D01*
X100220351Y-72473495D01*
X99964110Y-72591694D01*
X99748757Y-73225654D01*
X99792403Y-73893769D01*
X99964110Y-74308306D01*
X100220351Y-74426505D01*
X101196856Y-73450000D01*
X101196856Y-73956288D01*
X100473495Y-74679649D01*
X100591694Y-74935890D01*
X101225654Y-75151243D01*
X101893769Y-75107597D01*
X102308306Y-74935890D01*
X102426505Y-74679649D01*
X102426505Y-77320351D01*
X102308306Y-77064110D01*
X101674346Y-76848757D01*
X101006231Y-76892403D01*
X100591694Y-77064110D01*
X100473495Y-77320351D01*
X101450000Y-78296856D01*
X102426505Y-77320351D01*
X102426505Y-77826639D01*
X101703144Y-78550000D01*
X102679649Y-79526505D01*
X102935890Y-79408306D01*
X103151243Y-78774346D01*
X103151243Y-81925000D01*
X102426505Y-81925000D01*
X102426505Y-79779649D01*
X101450000Y-78803144D01*
X101196856Y-79056288D01*
X101196856Y-78550000D01*
X100220351Y-77573495D01*
X99964110Y-77691694D01*
X99748757Y-78325654D01*
X99792403Y-78993769D01*
X99964110Y-79408306D01*
X100220351Y-79526505D01*
X101196856Y-78550000D01*
X101196856Y-79056288D01*
X100473495Y-79779649D01*
X100591694Y-80035890D01*
X101225654Y-80251243D01*
X101893769Y-80207597D01*
X102308306Y-80035890D01*
X102426505Y-79779649D01*
X102426505Y-81925000D01*
X98075000Y-81925000D01*
X98075000Y-70500000D01*
X98075000Y-70075000D01*
X132925000Y-70075000D01*
X132925000Y-74425000D01*
X130782911Y-74425000D01*
X131035890Y-74308306D01*
X131251243Y-73674346D01*
X131207597Y-73006231D01*
X131035890Y-72591694D01*
X130779649Y-72473495D01*
X130526505Y-72726639D01*
X130526505Y-72220351D01*
X130408306Y-71964110D01*
X129774346Y-71748757D01*
X129106231Y-71792403D01*
X128691694Y-71964110D01*
X128573495Y-72220351D01*
X129550000Y-73196856D01*
X130526505Y-72220351D01*
X130526505Y-72726639D01*
X129803144Y-73450000D01*
X129817286Y-73464142D01*
X129564142Y-73717286D01*
X129550000Y-73703144D01*
X129296856Y-73956288D01*
X129296856Y-73450000D01*
X128320351Y-72473495D01*
X128064110Y-72591694D01*
X127848757Y-73225654D01*
X127892403Y-73893769D01*
X128064110Y-74308306D01*
X128320351Y-74426505D01*
X129296856Y-73450000D01*
X129296856Y-73956288D01*
X128573495Y-74679649D01*
X128691694Y-74935890D01*
X129325654Y-75151243D01*
X129993769Y-75107597D01*
X130408306Y-74935890D01*
X130526504Y-74679651D01*
X130526505Y-74679652D01*
X130635763Y-74788910D01*
X130675000Y-74749673D01*
X130675000Y-77250327D01*
X130635763Y-77211090D01*
X130526505Y-77320348D01*
X130526504Y-77320348D01*
X130408306Y-77064110D01*
X129774346Y-76848757D01*
X129106231Y-76892403D01*
X128691694Y-77064110D01*
X128573495Y-77320351D01*
X129550000Y-78296856D01*
X129564142Y-78282713D01*
X129817286Y-78535857D01*
X129803144Y-78550000D01*
X129817286Y-78564142D01*
X129564142Y-78817286D01*
X129550000Y-78803144D01*
X129296856Y-79056288D01*
X129296856Y-78550000D01*
X128320351Y-77573495D01*
X128275221Y-77594312D01*
X128275221Y-75747499D01*
X128081523Y-75278714D01*
X127723173Y-74919738D01*
X127254726Y-74725222D01*
X126747499Y-74724779D01*
X126278714Y-74918477D01*
X126151243Y-75045725D01*
X126151243Y-73674346D01*
X126107597Y-73006231D01*
X125935890Y-72591694D01*
X125679649Y-72473495D01*
X125426505Y-72726639D01*
X125426505Y-72220351D01*
X125308306Y-71964110D01*
X124674346Y-71748757D01*
X124006231Y-71792403D01*
X123591694Y-71964110D01*
X123473495Y-72220351D01*
X124450000Y-73196856D01*
X125426505Y-72220351D01*
X125426505Y-72726639D01*
X124703144Y-73450000D01*
X125679649Y-74426505D01*
X125935890Y-74308306D01*
X126151243Y-73674346D01*
X126151243Y-75045725D01*
X125919738Y-75276827D01*
X125804438Y-75554500D01*
X125426505Y-75554500D01*
X125426505Y-74679649D01*
X124450000Y-73703144D01*
X124196856Y-73956288D01*
X124196856Y-73450000D01*
X123220351Y-72473495D01*
X122964110Y-72591694D01*
X122748757Y-73225654D01*
X122792403Y-73893769D01*
X122964110Y-74308306D01*
X123220351Y-74426505D01*
X124196856Y-73450000D01*
X124196856Y-73956288D01*
X123473495Y-74679649D01*
X123591694Y-74935890D01*
X124225654Y-75151243D01*
X124893769Y-75107597D01*
X125308306Y-74935890D01*
X125426505Y-74679649D01*
X125426505Y-75554500D01*
X121080388Y-75554500D01*
X121080388Y-75389894D01*
X121130243Y-75369244D01*
X121294244Y-75205243D01*
X121383000Y-74990966D01*
X121383000Y-74858250D01*
X121383000Y-74241750D01*
X121383000Y-74109034D01*
X121294244Y-73894757D01*
X121130243Y-73730756D01*
X120915966Y-73642000D01*
X120795750Y-73642000D01*
X120650000Y-73787750D01*
X120650000Y-74387500D01*
X121237250Y-74387500D01*
X121383000Y-74241750D01*
X121383000Y-74858250D01*
X121237250Y-74712500D01*
X120650000Y-74712500D01*
X120650000Y-74749000D01*
X120350000Y-74749000D01*
X120350000Y-74712500D01*
X120350000Y-74387500D01*
X120350000Y-73787750D01*
X120204250Y-73642000D01*
X120084034Y-73642000D01*
X119869757Y-73730756D01*
X119705756Y-73894757D01*
X119617000Y-74109034D01*
X119617000Y-74241750D01*
X119762750Y-74387500D01*
X120350000Y-74387500D01*
X120350000Y-74712500D01*
X119762750Y-74712500D01*
X119617000Y-74858250D01*
X119617000Y-74864333D01*
X119287500Y-74425000D01*
X117531066Y-74425000D01*
X116531066Y-73425000D01*
X114468934Y-73425000D01*
X113468934Y-74425000D01*
X111709861Y-74425000D01*
X111383000Y-74915291D01*
X111383000Y-74858250D01*
X111383000Y-74241750D01*
X111383000Y-74109034D01*
X111294244Y-73894757D01*
X111130243Y-73730756D01*
X110915966Y-73642000D01*
X110795750Y-73642000D01*
X110650000Y-73787750D01*
X110650000Y-74387500D01*
X111237250Y-74387500D01*
X111383000Y-74241750D01*
X111383000Y-74858250D01*
X111237250Y-74712500D01*
X110650000Y-74712500D01*
X110650000Y-74749000D01*
X110350000Y-74749000D01*
X110350000Y-74712500D01*
X110350000Y-74387500D01*
X110350000Y-73787750D01*
X110204250Y-73642000D01*
X110084034Y-73642000D01*
X109869757Y-73730756D01*
X109705756Y-73894757D01*
X109617000Y-74109034D01*
X109617000Y-74241750D01*
X109762750Y-74387500D01*
X110350000Y-74387500D01*
X110350000Y-74712500D01*
X109762750Y-74712500D01*
X109617000Y-74858250D01*
X109617000Y-74990966D01*
X109705756Y-75205243D01*
X109869757Y-75369244D01*
X109919612Y-75389894D01*
X109919612Y-75554500D01*
X108251243Y-75554500D01*
X108251243Y-73674346D01*
X108207597Y-73006231D01*
X108035890Y-72591694D01*
X107779649Y-72473495D01*
X107526505Y-72726639D01*
X107526505Y-72220351D01*
X107408306Y-71964110D01*
X106774346Y-71748757D01*
X106106231Y-71792403D01*
X105691694Y-71964110D01*
X105573495Y-72220351D01*
X106550000Y-73196856D01*
X107526505Y-72220351D01*
X107526505Y-72726639D01*
X106803144Y-73450000D01*
X107779649Y-74426505D01*
X108035890Y-74308306D01*
X108251243Y-73674346D01*
X108251243Y-75554500D01*
X107526505Y-75554500D01*
X107526505Y-74679649D01*
X106550000Y-73703144D01*
X106296856Y-73956288D01*
X106296856Y-73450000D01*
X105320351Y-72473495D01*
X105064110Y-72591694D01*
X104848757Y-73225654D01*
X104892403Y-73893769D01*
X105064110Y-74308306D01*
X105320351Y-74426505D01*
X106296856Y-73450000D01*
X106296856Y-73956288D01*
X105573495Y-74679649D01*
X105691694Y-74935890D01*
X106325654Y-75151243D01*
X106993769Y-75107597D01*
X107408306Y-74935890D01*
X107526505Y-74679649D01*
X107526505Y-75554500D01*
X105195475Y-75554500D01*
X105081523Y-75278714D01*
X104723173Y-74919738D01*
X104254726Y-74725222D01*
X103747499Y-74724779D01*
X103278714Y-74918477D01*
X103151243Y-75045725D01*
X103151243Y-73674346D01*
X103107597Y-73006231D01*
X102935890Y-72591694D01*
X102679649Y-72473495D01*
X102426505Y-72726639D01*
X102426505Y-72220351D01*
X102308306Y-71964110D01*
X101674346Y-71748757D01*
X101006231Y-71792403D01*
X100591694Y-71964110D01*
X100473495Y-72220351D01*
X101450000Y-73196856D01*
X102426505Y-72220351D01*
X102426505Y-72726639D01*
X101703144Y-73450000D01*
X102679649Y-74426505D01*
X102935890Y-74308306D01*
X103151243Y-73674346D01*
X103151243Y-75045725D01*
X102919738Y-75276827D01*
X102725222Y-75745274D01*
X102724779Y-76252501D01*
X102918477Y-76721286D01*
X103276827Y-77080262D01*
X103745274Y-77274778D01*
X104252501Y-77275221D01*
X104721286Y-77081523D01*
X105080262Y-76723173D01*
X105195561Y-76445500D01*
X109919612Y-76445500D01*
X109919612Y-76610105D01*
X109869757Y-76630756D01*
X109705756Y-76794757D01*
X109617000Y-77009034D01*
X109617000Y-77141750D01*
X109762750Y-77287500D01*
X110350000Y-77287500D01*
X110350000Y-77251000D01*
X110650000Y-77251000D01*
X110650000Y-77287500D01*
X111157295Y-77287500D01*
X111732295Y-77575000D01*
X119272708Y-77575000D01*
X119739233Y-77263983D01*
X119762750Y-77287500D01*
X120350000Y-77287500D01*
X120350000Y-77251000D01*
X120650000Y-77251000D01*
X120650000Y-77287500D01*
X121237250Y-77287500D01*
X121383000Y-77141750D01*
X121383000Y-77009034D01*
X121294244Y-76794757D01*
X121130243Y-76630756D01*
X121080388Y-76610105D01*
X121080388Y-76445500D01*
X125804524Y-76445500D01*
X125918477Y-76721286D01*
X126276827Y-77080262D01*
X126745274Y-77274778D01*
X127252501Y-77275221D01*
X127721286Y-77081523D01*
X128080262Y-76723173D01*
X128274778Y-76254726D01*
X128275221Y-75747499D01*
X128275221Y-77594312D01*
X128064110Y-77691694D01*
X127848757Y-78325654D01*
X127892403Y-78993769D01*
X128064110Y-79408306D01*
X128320351Y-79526505D01*
X129296856Y-78550000D01*
X129296856Y-79056288D01*
X128573495Y-79779649D01*
X128691694Y-80035890D01*
X129325654Y-80251243D01*
X129993769Y-80207597D01*
X130225000Y-80111817D01*
X130225000Y-81139285D01*
X132925000Y-81139285D01*
X132925000Y-81925000D01*
M02*
