G04 #@! TF.FileFunction,Copper,L3,Inr,Signal*
%FSLAX46Y46*%
G04 Gerber Fmt 4.6, Leading zero omitted, Abs format (unit mm)*
G04 Created by KiCad (PCBNEW (2015-02-20 BZR 5435)-product) date Sun 22 Feb 2015 03:58:16 PM EST*
%MOMM*%
G01*
G04 APERTURE LIST*
%ADD10C,0.100000*%
%ADD11C,0.300000*%
%ADD12C,2.000000*%
%ADD13C,2.200000*%
%ADD14C,0.600000*%
%ADD15C,0.254000*%
G04 APERTURE END LIST*
D10*
D11*
X131178571Y-77499999D02*
X131178571Y-76571428D01*
X131750000Y-77071428D01*
X131750000Y-76857142D01*
X131821429Y-76714285D01*
X131892857Y-76642856D01*
X132035714Y-76571428D01*
X132392857Y-76571428D01*
X132535714Y-76642856D01*
X132607143Y-76714285D01*
X132678571Y-76857142D01*
X132678571Y-77285714D01*
X132607143Y-77428571D01*
X132535714Y-77499999D01*
D12*
X104000000Y-76000000D03*
D13*
X101450000Y-73450000D03*
X106550000Y-73450000D03*
X101450000Y-78550000D03*
X106550000Y-78550000D03*
D12*
X127000000Y-76000000D03*
D13*
X124450000Y-73450000D03*
X129550000Y-73450000D03*
X124450000Y-78550000D03*
X129550000Y-78550000D03*
D14*
X99000000Y-81000000D03*
X102000000Y-81000000D03*
X105000000Y-81000000D03*
X108000000Y-81000000D03*
X111000000Y-81000000D03*
X114000000Y-81000000D03*
X117000000Y-81000000D03*
X120000000Y-81000000D03*
X123000000Y-81000000D03*
X126000000Y-81000000D03*
X129000000Y-81000000D03*
X132000000Y-71000000D03*
X129000000Y-71000000D03*
X126000000Y-71000000D03*
X123000000Y-71000000D03*
X120000000Y-71000000D03*
X117000000Y-71000000D03*
X114000000Y-71000000D03*
X111000000Y-71000000D03*
X108000000Y-71000000D03*
X105000000Y-71000000D03*
X105000000Y-71000000D03*
X102000000Y-71000000D03*
X99000000Y-71000000D03*
X99000000Y-76000000D03*
X111000000Y-73000000D03*
X114000000Y-73000000D03*
X117000000Y-73000000D03*
X120000000Y-73000000D03*
X111000000Y-79000000D03*
X114000000Y-79000000D03*
X117000000Y-79000000D03*
X120000000Y-79000000D03*
X108000000Y-75000000D03*
X108000000Y-77000000D03*
X123000000Y-75000000D03*
X123000000Y-77000000D03*
X132000000Y-73750000D03*
X130250000Y-81000000D03*
D15*
G36*
X132815000Y-81815000D02*
X130595263Y-81815000D01*
X126195323Y-81815000D01*
X126195323Y-78838407D01*
X126172836Y-78148547D01*
X125952099Y-77615641D01*
X125674868Y-77504737D01*
X125495263Y-77684342D01*
X125495263Y-77325132D01*
X125384359Y-77047901D01*
X124738407Y-76804677D01*
X124048547Y-76827164D01*
X123515641Y-77047901D01*
X123404737Y-77325132D01*
X124450000Y-78370395D01*
X125495263Y-77325132D01*
X125495263Y-77684342D01*
X124629605Y-78550000D01*
X125674868Y-79595263D01*
X125952099Y-79484359D01*
X126195323Y-78838407D01*
X126195323Y-81815000D01*
X125495263Y-81815000D01*
X125495263Y-79774868D01*
X124450000Y-78729605D01*
X124270395Y-78909210D01*
X124270395Y-78550000D01*
X123225132Y-77504737D01*
X122947901Y-77615641D01*
X122704677Y-78261593D01*
X122727164Y-78951453D01*
X122947901Y-79484359D01*
X123225132Y-79595263D01*
X124270395Y-78550000D01*
X124270395Y-78909210D01*
X123404737Y-79774868D01*
X123515641Y-80052099D01*
X124161593Y-80295323D01*
X124851453Y-80272836D01*
X125384359Y-80052099D01*
X125495263Y-79774868D01*
X125495263Y-81815000D01*
X108295323Y-81815000D01*
X108295323Y-78838407D01*
X108295323Y-73738407D01*
X108272836Y-73048547D01*
X108052099Y-72515641D01*
X107774868Y-72404737D01*
X107595263Y-72584342D01*
X107595263Y-72225132D01*
X107484359Y-71947901D01*
X106838407Y-71704677D01*
X106148547Y-71727164D01*
X105615641Y-71947901D01*
X105504737Y-72225132D01*
X106550000Y-73270395D01*
X107595263Y-72225132D01*
X107595263Y-72584342D01*
X106729605Y-73450000D01*
X107774868Y-74495263D01*
X108052099Y-74384359D01*
X108295323Y-73738407D01*
X108295323Y-78838407D01*
X108272836Y-78148547D01*
X108052099Y-77615641D01*
X107774868Y-77504737D01*
X107595263Y-77684342D01*
X107595263Y-77325132D01*
X107595263Y-74674868D01*
X106550000Y-73629605D01*
X106370395Y-73809210D01*
X106370395Y-73450000D01*
X105325132Y-72404737D01*
X105047901Y-72515641D01*
X104804677Y-73161593D01*
X104827164Y-73851453D01*
X105047901Y-74384359D01*
X105325132Y-74495263D01*
X106370395Y-73450000D01*
X106370395Y-73809210D01*
X105504737Y-74674868D01*
X105615641Y-74952099D01*
X106261593Y-75195323D01*
X106951453Y-75172836D01*
X107484359Y-74952099D01*
X107595263Y-74674868D01*
X107595263Y-77325132D01*
X107484359Y-77047901D01*
X106838407Y-76804677D01*
X106148547Y-76827164D01*
X105635284Y-77039764D01*
X105635284Y-75676205D01*
X105386894Y-75075057D01*
X104927363Y-74614722D01*
X104326648Y-74365284D01*
X103676205Y-74364716D01*
X103195323Y-74563412D01*
X103195323Y-73738407D01*
X103172836Y-73048547D01*
X102952099Y-72515641D01*
X102674868Y-72404737D01*
X102495263Y-72584342D01*
X102495263Y-72225132D01*
X102384359Y-71947901D01*
X101738407Y-71704677D01*
X101048547Y-71727164D01*
X100515641Y-71947901D01*
X100404737Y-72225132D01*
X101450000Y-73270395D01*
X102495263Y-72225132D01*
X102495263Y-72584342D01*
X101629605Y-73450000D01*
X102674868Y-74495263D01*
X102952099Y-74384359D01*
X103195323Y-73738407D01*
X103195323Y-74563412D01*
X103075057Y-74613106D01*
X102614722Y-75072637D01*
X102495263Y-75360326D01*
X102495263Y-74674868D01*
X101450000Y-73629605D01*
X101270395Y-73809210D01*
X101270395Y-73450000D01*
X100225132Y-72404737D01*
X99947901Y-72515641D01*
X99704677Y-73161593D01*
X99727164Y-73851453D01*
X99947901Y-74384359D01*
X100225132Y-74495263D01*
X101270395Y-73450000D01*
X101270395Y-73809210D01*
X100404737Y-74674868D01*
X100515641Y-74952099D01*
X101161593Y-75195323D01*
X101851453Y-75172836D01*
X102384359Y-74952099D01*
X102495263Y-74674868D01*
X102495263Y-75360326D01*
X102365284Y-75673352D01*
X102364716Y-76323795D01*
X102613106Y-76924943D01*
X103072637Y-77385278D01*
X103673352Y-77634716D01*
X104323795Y-77635284D01*
X104924943Y-77386894D01*
X105385278Y-76927363D01*
X105634716Y-76326648D01*
X105635284Y-75676205D01*
X105635284Y-77039764D01*
X105615641Y-77047901D01*
X105504737Y-77325132D01*
X106550000Y-78370395D01*
X107595263Y-77325132D01*
X107595263Y-77684342D01*
X106729605Y-78550000D01*
X107774868Y-79595263D01*
X108052099Y-79484359D01*
X108295323Y-78838407D01*
X108295323Y-81815000D01*
X107595263Y-81815000D01*
X107595263Y-79774868D01*
X106550000Y-78729605D01*
X106370395Y-78909210D01*
X106370395Y-78550000D01*
X105325132Y-77504737D01*
X105047901Y-77615641D01*
X104804677Y-78261593D01*
X104827164Y-78951453D01*
X105047901Y-79484359D01*
X105325132Y-79595263D01*
X106370395Y-78550000D01*
X106370395Y-78909210D01*
X105504737Y-79774868D01*
X105615641Y-80052099D01*
X106261593Y-80295323D01*
X106951453Y-80272836D01*
X107484359Y-80052099D01*
X107595263Y-79774868D01*
X107595263Y-81815000D01*
X103195323Y-81815000D01*
X103195323Y-78838407D01*
X103172836Y-78148547D01*
X102952099Y-77615641D01*
X102674868Y-77504737D01*
X102495263Y-77684342D01*
X102495263Y-77325132D01*
X102384359Y-77047901D01*
X101738407Y-76804677D01*
X101048547Y-76827164D01*
X100515641Y-77047901D01*
X100404737Y-77325132D01*
X101450000Y-78370395D01*
X102495263Y-77325132D01*
X102495263Y-77684342D01*
X101629605Y-78550000D01*
X102674868Y-79595263D01*
X102952099Y-79484359D01*
X103195323Y-78838407D01*
X103195323Y-81815000D01*
X102495263Y-81815000D01*
X102495263Y-79774868D01*
X101450000Y-78729605D01*
X101270395Y-78909210D01*
X101270395Y-78550000D01*
X100225132Y-77504737D01*
X99947901Y-77615641D01*
X99704677Y-78261593D01*
X99727164Y-78951453D01*
X99947901Y-79484359D01*
X100225132Y-79595263D01*
X101270395Y-78550000D01*
X101270395Y-78909210D01*
X100404737Y-79774868D01*
X100515641Y-80052099D01*
X101161593Y-80295323D01*
X101851453Y-80272836D01*
X102384359Y-80052099D01*
X102495263Y-79774868D01*
X102495263Y-81815000D01*
X98185000Y-81815000D01*
X98185000Y-70185000D01*
X132815000Y-70185000D01*
X132815000Y-74373000D01*
X131056376Y-74373000D01*
X131295323Y-73738407D01*
X131272836Y-73048547D01*
X131052099Y-72515641D01*
X130774868Y-72404737D01*
X130595263Y-72584342D01*
X130595263Y-72225132D01*
X130484359Y-71947901D01*
X129838407Y-71704677D01*
X129148547Y-71727164D01*
X128615641Y-71947901D01*
X128504737Y-72225132D01*
X129550000Y-73270395D01*
X130595263Y-72225132D01*
X130595263Y-72584342D01*
X129729605Y-73450000D01*
X129743747Y-73464142D01*
X129564142Y-73643747D01*
X129550000Y-73629605D01*
X129370395Y-73809210D01*
X129370395Y-73450000D01*
X128325132Y-72404737D01*
X128047901Y-72515641D01*
X127804677Y-73161593D01*
X127827164Y-73851453D01*
X128047901Y-74384359D01*
X128325132Y-74495263D01*
X129370395Y-73450000D01*
X129370395Y-73809210D01*
X128504737Y-74674868D01*
X128615641Y-74952099D01*
X129261593Y-75195323D01*
X129951453Y-75172836D01*
X130484359Y-74952099D01*
X130595262Y-74674870D01*
X130595263Y-74674871D01*
X130623000Y-74702608D01*
X130623000Y-75500714D01*
X130595263Y-75500714D01*
X129865000Y-75500714D01*
X129865000Y-76814690D01*
X129838407Y-76804677D01*
X129148547Y-76827164D01*
X128635284Y-77039764D01*
X128635284Y-75676205D01*
X128386894Y-75075057D01*
X127927363Y-74614722D01*
X127326648Y-74365284D01*
X126676205Y-74364716D01*
X126195323Y-74563412D01*
X126195323Y-73738407D01*
X126172836Y-73048547D01*
X125952099Y-72515641D01*
X125674868Y-72404737D01*
X125495263Y-72584342D01*
X125495263Y-72225132D01*
X125384359Y-71947901D01*
X124738407Y-71704677D01*
X124048547Y-71727164D01*
X123515641Y-71947901D01*
X123404737Y-72225132D01*
X124450000Y-73270395D01*
X125495263Y-72225132D01*
X125495263Y-72584342D01*
X124629605Y-73450000D01*
X125674868Y-74495263D01*
X125952099Y-74384359D01*
X126195323Y-73738407D01*
X126195323Y-74563412D01*
X126075057Y-74613106D01*
X125614722Y-75072637D01*
X125495263Y-75360326D01*
X125495263Y-74674868D01*
X124450000Y-73629605D01*
X124270395Y-73809210D01*
X124270395Y-73450000D01*
X123225132Y-72404737D01*
X122947901Y-72515641D01*
X122704677Y-73161593D01*
X122727164Y-73851453D01*
X122947901Y-74384359D01*
X123225132Y-74495263D01*
X124270395Y-73450000D01*
X124270395Y-73809210D01*
X123404737Y-74674868D01*
X123515641Y-74952099D01*
X124161593Y-75195323D01*
X124851453Y-75172836D01*
X125384359Y-74952099D01*
X125495263Y-74674868D01*
X125495263Y-75360326D01*
X125365284Y-75673352D01*
X125364716Y-76323795D01*
X125613106Y-76924943D01*
X126072637Y-77385278D01*
X126673352Y-77634716D01*
X127323795Y-77635284D01*
X127924943Y-77386894D01*
X128385278Y-76927363D01*
X128634716Y-76326648D01*
X128635284Y-75676205D01*
X128635284Y-77039764D01*
X128615641Y-77047901D01*
X128504737Y-77325132D01*
X129550000Y-78370395D01*
X129564142Y-78356252D01*
X129743747Y-78535857D01*
X129729605Y-78550000D01*
X129743747Y-78564142D01*
X129564142Y-78743747D01*
X129550000Y-78729605D01*
X129370395Y-78909210D01*
X129370395Y-78550000D01*
X128325132Y-77504737D01*
X128047901Y-77615641D01*
X127804677Y-78261593D01*
X127827164Y-78951453D01*
X128047901Y-79484359D01*
X128325132Y-79595263D01*
X129370395Y-78550000D01*
X129370395Y-78909210D01*
X128504737Y-79774868D01*
X128615641Y-80052099D01*
X129261593Y-80295323D01*
X129951453Y-80272836D01*
X130484359Y-80052099D01*
X130595262Y-79774870D01*
X130595263Y-79774871D01*
X130623000Y-79802608D01*
X130623000Y-81127000D01*
X132815000Y-81127000D01*
X132815000Y-81815000D01*
X132815000Y-81815000D01*
G37*
X132815000Y-81815000D02*
X130595263Y-81815000D01*
X126195323Y-81815000D01*
X126195323Y-78838407D01*
X126172836Y-78148547D01*
X125952099Y-77615641D01*
X125674868Y-77504737D01*
X125495263Y-77684342D01*
X125495263Y-77325132D01*
X125384359Y-77047901D01*
X124738407Y-76804677D01*
X124048547Y-76827164D01*
X123515641Y-77047901D01*
X123404737Y-77325132D01*
X124450000Y-78370395D01*
X125495263Y-77325132D01*
X125495263Y-77684342D01*
X124629605Y-78550000D01*
X125674868Y-79595263D01*
X125952099Y-79484359D01*
X126195323Y-78838407D01*
X126195323Y-81815000D01*
X125495263Y-81815000D01*
X125495263Y-79774868D01*
X124450000Y-78729605D01*
X124270395Y-78909210D01*
X124270395Y-78550000D01*
X123225132Y-77504737D01*
X122947901Y-77615641D01*
X122704677Y-78261593D01*
X122727164Y-78951453D01*
X122947901Y-79484359D01*
X123225132Y-79595263D01*
X124270395Y-78550000D01*
X124270395Y-78909210D01*
X123404737Y-79774868D01*
X123515641Y-80052099D01*
X124161593Y-80295323D01*
X124851453Y-80272836D01*
X125384359Y-80052099D01*
X125495263Y-79774868D01*
X125495263Y-81815000D01*
X108295323Y-81815000D01*
X108295323Y-78838407D01*
X108295323Y-73738407D01*
X108272836Y-73048547D01*
X108052099Y-72515641D01*
X107774868Y-72404737D01*
X107595263Y-72584342D01*
X107595263Y-72225132D01*
X107484359Y-71947901D01*
X106838407Y-71704677D01*
X106148547Y-71727164D01*
X105615641Y-71947901D01*
X105504737Y-72225132D01*
X106550000Y-73270395D01*
X107595263Y-72225132D01*
X107595263Y-72584342D01*
X106729605Y-73450000D01*
X107774868Y-74495263D01*
X108052099Y-74384359D01*
X108295323Y-73738407D01*
X108295323Y-78838407D01*
X108272836Y-78148547D01*
X108052099Y-77615641D01*
X107774868Y-77504737D01*
X107595263Y-77684342D01*
X107595263Y-77325132D01*
X107595263Y-74674868D01*
X106550000Y-73629605D01*
X106370395Y-73809210D01*
X106370395Y-73450000D01*
X105325132Y-72404737D01*
X105047901Y-72515641D01*
X104804677Y-73161593D01*
X104827164Y-73851453D01*
X105047901Y-74384359D01*
X105325132Y-74495263D01*
X106370395Y-73450000D01*
X106370395Y-73809210D01*
X105504737Y-74674868D01*
X105615641Y-74952099D01*
X106261593Y-75195323D01*
X106951453Y-75172836D01*
X107484359Y-74952099D01*
X107595263Y-74674868D01*
X107595263Y-77325132D01*
X107484359Y-77047901D01*
X106838407Y-76804677D01*
X106148547Y-76827164D01*
X105635284Y-77039764D01*
X105635284Y-75676205D01*
X105386894Y-75075057D01*
X104927363Y-74614722D01*
X104326648Y-74365284D01*
X103676205Y-74364716D01*
X103195323Y-74563412D01*
X103195323Y-73738407D01*
X103172836Y-73048547D01*
X102952099Y-72515641D01*
X102674868Y-72404737D01*
X102495263Y-72584342D01*
X102495263Y-72225132D01*
X102384359Y-71947901D01*
X101738407Y-71704677D01*
X101048547Y-71727164D01*
X100515641Y-71947901D01*
X100404737Y-72225132D01*
X101450000Y-73270395D01*
X102495263Y-72225132D01*
X102495263Y-72584342D01*
X101629605Y-73450000D01*
X102674868Y-74495263D01*
X102952099Y-74384359D01*
X103195323Y-73738407D01*
X103195323Y-74563412D01*
X103075057Y-74613106D01*
X102614722Y-75072637D01*
X102495263Y-75360326D01*
X102495263Y-74674868D01*
X101450000Y-73629605D01*
X101270395Y-73809210D01*
X101270395Y-73450000D01*
X100225132Y-72404737D01*
X99947901Y-72515641D01*
X99704677Y-73161593D01*
X99727164Y-73851453D01*
X99947901Y-74384359D01*
X100225132Y-74495263D01*
X101270395Y-73450000D01*
X101270395Y-73809210D01*
X100404737Y-74674868D01*
X100515641Y-74952099D01*
X101161593Y-75195323D01*
X101851453Y-75172836D01*
X102384359Y-74952099D01*
X102495263Y-74674868D01*
X102495263Y-75360326D01*
X102365284Y-75673352D01*
X102364716Y-76323795D01*
X102613106Y-76924943D01*
X103072637Y-77385278D01*
X103673352Y-77634716D01*
X104323795Y-77635284D01*
X104924943Y-77386894D01*
X105385278Y-76927363D01*
X105634716Y-76326648D01*
X105635284Y-75676205D01*
X105635284Y-77039764D01*
X105615641Y-77047901D01*
X105504737Y-77325132D01*
X106550000Y-78370395D01*
X107595263Y-77325132D01*
X107595263Y-77684342D01*
X106729605Y-78550000D01*
X107774868Y-79595263D01*
X108052099Y-79484359D01*
X108295323Y-78838407D01*
X108295323Y-81815000D01*
X107595263Y-81815000D01*
X107595263Y-79774868D01*
X106550000Y-78729605D01*
X106370395Y-78909210D01*
X106370395Y-78550000D01*
X105325132Y-77504737D01*
X105047901Y-77615641D01*
X104804677Y-78261593D01*
X104827164Y-78951453D01*
X105047901Y-79484359D01*
X105325132Y-79595263D01*
X106370395Y-78550000D01*
X106370395Y-78909210D01*
X105504737Y-79774868D01*
X105615641Y-80052099D01*
X106261593Y-80295323D01*
X106951453Y-80272836D01*
X107484359Y-80052099D01*
X107595263Y-79774868D01*
X107595263Y-81815000D01*
X103195323Y-81815000D01*
X103195323Y-78838407D01*
X103172836Y-78148547D01*
X102952099Y-77615641D01*
X102674868Y-77504737D01*
X102495263Y-77684342D01*
X102495263Y-77325132D01*
X102384359Y-77047901D01*
X101738407Y-76804677D01*
X101048547Y-76827164D01*
X100515641Y-77047901D01*
X100404737Y-77325132D01*
X101450000Y-78370395D01*
X102495263Y-77325132D01*
X102495263Y-77684342D01*
X101629605Y-78550000D01*
X102674868Y-79595263D01*
X102952099Y-79484359D01*
X103195323Y-78838407D01*
X103195323Y-81815000D01*
X102495263Y-81815000D01*
X102495263Y-79774868D01*
X101450000Y-78729605D01*
X101270395Y-78909210D01*
X101270395Y-78550000D01*
X100225132Y-77504737D01*
X99947901Y-77615641D01*
X99704677Y-78261593D01*
X99727164Y-78951453D01*
X99947901Y-79484359D01*
X100225132Y-79595263D01*
X101270395Y-78550000D01*
X101270395Y-78909210D01*
X100404737Y-79774868D01*
X100515641Y-80052099D01*
X101161593Y-80295323D01*
X101851453Y-80272836D01*
X102384359Y-80052099D01*
X102495263Y-79774868D01*
X102495263Y-81815000D01*
X98185000Y-81815000D01*
X98185000Y-70185000D01*
X132815000Y-70185000D01*
X132815000Y-74373000D01*
X131056376Y-74373000D01*
X131295323Y-73738407D01*
X131272836Y-73048547D01*
X131052099Y-72515641D01*
X130774868Y-72404737D01*
X130595263Y-72584342D01*
X130595263Y-72225132D01*
X130484359Y-71947901D01*
X129838407Y-71704677D01*
X129148547Y-71727164D01*
X128615641Y-71947901D01*
X128504737Y-72225132D01*
X129550000Y-73270395D01*
X130595263Y-72225132D01*
X130595263Y-72584342D01*
X129729605Y-73450000D01*
X129743747Y-73464142D01*
X129564142Y-73643747D01*
X129550000Y-73629605D01*
X129370395Y-73809210D01*
X129370395Y-73450000D01*
X128325132Y-72404737D01*
X128047901Y-72515641D01*
X127804677Y-73161593D01*
X127827164Y-73851453D01*
X128047901Y-74384359D01*
X128325132Y-74495263D01*
X129370395Y-73450000D01*
X129370395Y-73809210D01*
X128504737Y-74674868D01*
X128615641Y-74952099D01*
X129261593Y-75195323D01*
X129951453Y-75172836D01*
X130484359Y-74952099D01*
X130595262Y-74674870D01*
X130595263Y-74674871D01*
X130623000Y-74702608D01*
X130623000Y-75500714D01*
X130595263Y-75500714D01*
X129865000Y-75500714D01*
X129865000Y-76814690D01*
X129838407Y-76804677D01*
X129148547Y-76827164D01*
X128635284Y-77039764D01*
X128635284Y-75676205D01*
X128386894Y-75075057D01*
X127927363Y-74614722D01*
X127326648Y-74365284D01*
X126676205Y-74364716D01*
X126195323Y-74563412D01*
X126195323Y-73738407D01*
X126172836Y-73048547D01*
X125952099Y-72515641D01*
X125674868Y-72404737D01*
X125495263Y-72584342D01*
X125495263Y-72225132D01*
X125384359Y-71947901D01*
X124738407Y-71704677D01*
X124048547Y-71727164D01*
X123515641Y-71947901D01*
X123404737Y-72225132D01*
X124450000Y-73270395D01*
X125495263Y-72225132D01*
X125495263Y-72584342D01*
X124629605Y-73450000D01*
X125674868Y-74495263D01*
X125952099Y-74384359D01*
X126195323Y-73738407D01*
X126195323Y-74563412D01*
X126075057Y-74613106D01*
X125614722Y-75072637D01*
X125495263Y-75360326D01*
X125495263Y-74674868D01*
X124450000Y-73629605D01*
X124270395Y-73809210D01*
X124270395Y-73450000D01*
X123225132Y-72404737D01*
X122947901Y-72515641D01*
X122704677Y-73161593D01*
X122727164Y-73851453D01*
X122947901Y-74384359D01*
X123225132Y-74495263D01*
X124270395Y-73450000D01*
X124270395Y-73809210D01*
X123404737Y-74674868D01*
X123515641Y-74952099D01*
X124161593Y-75195323D01*
X124851453Y-75172836D01*
X125384359Y-74952099D01*
X125495263Y-74674868D01*
X125495263Y-75360326D01*
X125365284Y-75673352D01*
X125364716Y-76323795D01*
X125613106Y-76924943D01*
X126072637Y-77385278D01*
X126673352Y-77634716D01*
X127323795Y-77635284D01*
X127924943Y-77386894D01*
X128385278Y-76927363D01*
X128634716Y-76326648D01*
X128635284Y-75676205D01*
X128635284Y-77039764D01*
X128615641Y-77047901D01*
X128504737Y-77325132D01*
X129550000Y-78370395D01*
X129564142Y-78356252D01*
X129743747Y-78535857D01*
X129729605Y-78550000D01*
X129743747Y-78564142D01*
X129564142Y-78743747D01*
X129550000Y-78729605D01*
X129370395Y-78909210D01*
X129370395Y-78550000D01*
X128325132Y-77504737D01*
X128047901Y-77615641D01*
X127804677Y-78261593D01*
X127827164Y-78951453D01*
X128047901Y-79484359D01*
X128325132Y-79595263D01*
X129370395Y-78550000D01*
X129370395Y-78909210D01*
X128504737Y-79774868D01*
X128615641Y-80052099D01*
X129261593Y-80295323D01*
X129951453Y-80272836D01*
X130484359Y-80052099D01*
X130595262Y-79774870D01*
X130595263Y-79774871D01*
X130623000Y-79802608D01*
X130623000Y-81127000D01*
X132815000Y-81127000D01*
X132815000Y-81815000D01*
M02*
