M48
;DRILL file {kicad (2015-02-20 BZR 5435)-product} date Sun 22 Feb 2015 03:58:18 PM EST
;FORMAT={-:-/ absolute / inch / decimal}
FMAT,2
INCH,TZ
T1C0.012
T2C0.055
T3C0.059
%
G90
G05
M72
T1
X3.8976Y-2.7953
X3.8976Y-2.9921
X3.8976Y-3.189
X4.0157Y-2.7953
X4.0157Y-3.189
X4.1339Y-2.7953
X4.1339Y-2.7953
X4.1339Y-3.189
X4.252Y-2.7953
X4.252Y-2.9528
X4.252Y-3.0315
X4.252Y-3.189
X4.3701Y-2.7953
X4.3701Y-2.874
X4.3701Y-3.1102
X4.3701Y-3.189
X4.4882Y-2.7953
X4.4882Y-2.874
X4.4882Y-3.1102
X4.4882Y-3.189
X4.6063Y-2.7953
X4.6063Y-2.874
X4.6063Y-3.1102
X4.6063Y-3.189
X4.7244Y-2.7953
X4.7244Y-2.874
X4.7244Y-3.1102
X4.7244Y-3.189
X4.8425Y-2.7953
X4.8425Y-2.9528
X4.8425Y-3.0315
X4.8425Y-3.189
X4.9606Y-2.7953
X4.9606Y-3.189
X5.0787Y-2.7953
X5.0787Y-3.189
X5.128Y-3.189
X5.1969Y-2.7953
X5.1969Y-2.9035
T2
X4.0945Y-2.9921
X5.Y-2.9921
T3
X3.9941Y-2.8917
X3.9941Y-3.0925
X4.1949Y-2.8917
X4.1949Y-3.0925
X4.8996Y-2.8917
X4.8996Y-3.0925
X5.1004Y-2.8917
X5.1004Y-3.0925
T0
M30
