G04 #@! TF.FileFunction,Legend,Bot*
%FSLAX46Y46*%
G04 Gerber Fmt 4.6, Leading zero omitted, Abs format (unit mm)*
G04 Created by KiCad (PCBNEW (2015-02-20 BZR 5435)-product) date Sun 22 Feb 2015 03:58:16 PM EST*
%MOMM*%
G01*
G04 APERTURE LIST*
%ADD10C,0.100000*%
%ADD11C,0.200000*%
G04 APERTURE END LIST*
D10*
D11*
X122738096Y-71452381D02*
X122500001Y-72452381D01*
X122309524Y-71738095D01*
X122119048Y-72452381D01*
X121880953Y-71452381D01*
X120928572Y-72357143D02*
X120976191Y-72404762D01*
X121119048Y-72452381D01*
X121214286Y-72452381D01*
X121357144Y-72404762D01*
X121452382Y-72309524D01*
X121500001Y-72214286D01*
X121547620Y-72023810D01*
X121547620Y-71880952D01*
X121500001Y-71690476D01*
X121452382Y-71595238D01*
X121357144Y-71500000D01*
X121214286Y-71452381D01*
X121119048Y-71452381D01*
X120976191Y-71500000D01*
X120928572Y-71547619D01*
X120500001Y-72452381D02*
X120500001Y-71452381D01*
X120119048Y-71452381D01*
X120023810Y-71500000D01*
X119976191Y-71547619D01*
X119928572Y-71642857D01*
X119928572Y-71785714D01*
X119976191Y-71880952D01*
X120023810Y-71928571D01*
X120119048Y-71976190D01*
X120500001Y-71976190D01*
X119023810Y-71452381D02*
X119500001Y-71452381D01*
X119547620Y-71928571D01*
X119500001Y-71880952D01*
X119404763Y-71833333D01*
X119166667Y-71833333D01*
X119071429Y-71880952D01*
X119023810Y-71928571D01*
X118976191Y-72023810D01*
X118976191Y-72261905D01*
X119023810Y-72357143D01*
X119071429Y-72404762D01*
X119166667Y-72452381D01*
X119404763Y-72452381D01*
X119500001Y-72404762D01*
X119547620Y-72357143D01*
X118595239Y-71547619D02*
X118547620Y-71500000D01*
X118452382Y-71452381D01*
X118214286Y-71452381D01*
X118119048Y-71500000D01*
X118071429Y-71547619D01*
X118023810Y-71642857D01*
X118023810Y-71738095D01*
X118071429Y-71880952D01*
X118642858Y-72452381D01*
X118023810Y-72452381D01*
X116500000Y-71928571D02*
X116833334Y-71928571D01*
X116833334Y-72452381D02*
X116833334Y-71452381D01*
X116357143Y-71452381D01*
X115976191Y-72452381D02*
X115976191Y-71452381D01*
X115023810Y-72452381D02*
X115500001Y-72452381D01*
X115500001Y-71452381D01*
X114833334Y-71452381D02*
X114261905Y-71452381D01*
X114547620Y-72452381D02*
X114547620Y-71452381D01*
X113928572Y-71928571D02*
X113595238Y-71928571D01*
X113452381Y-72452381D02*
X113928572Y-72452381D01*
X113928572Y-71452381D01*
X113452381Y-71452381D01*
X112452381Y-72452381D02*
X112785715Y-71976190D01*
X113023810Y-72452381D02*
X113023810Y-71452381D01*
X112642857Y-71452381D01*
X112547619Y-71500000D01*
X112500000Y-71547619D01*
X112452381Y-71642857D01*
X112452381Y-71785714D01*
X112500000Y-71880952D01*
X112547619Y-71928571D01*
X112642857Y-71976190D01*
X113023810Y-71976190D01*
X111404762Y-71452381D02*
X110833333Y-71452381D01*
X111119048Y-72452381D02*
X111119048Y-71452381D01*
X110500000Y-71928571D02*
X110166666Y-71928571D01*
X110023809Y-72452381D02*
X110500000Y-72452381D01*
X110500000Y-71452381D01*
X110023809Y-71452381D01*
X109642857Y-72404762D02*
X109500000Y-72452381D01*
X109261904Y-72452381D01*
X109166666Y-72404762D01*
X109119047Y-72357143D01*
X109071428Y-72261905D01*
X109071428Y-72166667D01*
X109119047Y-72071429D01*
X109166666Y-72023810D01*
X109261904Y-71976190D01*
X109452381Y-71928571D01*
X109547619Y-71880952D01*
X109595238Y-71833333D01*
X109642857Y-71738095D01*
X109642857Y-71642857D01*
X109595238Y-71547619D01*
X109547619Y-71500000D01*
X109452381Y-71452381D01*
X109214285Y-71452381D01*
X109071428Y-71500000D01*
X108785714Y-71452381D02*
X108214285Y-71452381D01*
X108500000Y-72452381D02*
X108500000Y-71452381D01*
M02*
